<svg width="21" height="17" viewBox="0 0 21 17" fill="none" xmlns="http://www.w3.org/2000/svg">
<path d="M18.4297 4.4375C19.2109 3.85156 19.9141 3.14844 20.4609 2.32812C19.7578 2.64062 18.9375 2.875 18.1172 2.95312C18.9766 2.44531 19.6016 1.66406 19.9141 0.6875C19.1328 1.15625 18.2344 1.50781 17.3359 1.70312C16.5547 0.882812 15.5 0.414062 14.3281 0.414062C12.0625 0.414062 10.2266 2.25 10.2266 4.51562C10.2266 4.82812 10.2656 5.14062 10.3438 5.45312C6.94531 5.25781 3.89844 3.61719 1.86719 1.15625C1.51562 1.74219 1.32031 2.44531 1.32031 3.22656C1.32031 4.63281 2.02344 5.88281 3.15625 6.625C2.49219 6.58594 1.82812 6.42969 1.28125 6.11719V6.15625C1.28125 8.14844 2.6875 9.78906 4.5625 10.1797C4.25 10.2578 3.85938 10.3359 3.50781 10.3359C3.23438 10.3359 3 10.2969 2.72656 10.2578C3.23438 11.8984 4.75781 13.0703 6.55469 13.1094C5.14844 14.2031 3.39062 14.8672 1.47656 14.8672C1.125 14.8672 0.8125 14.8281 0.5 14.7891C2.29688 15.9609 4.44531 16.625 6.78906 16.625C14.3281 16.625 18.4297 10.4141 18.4297 4.98438C18.4297 4.78906 18.4297 4.63281 18.4297 4.4375Z" fill="white"/>
</svg>
