<svg width="21" height="19" viewBox="0 0 21 19" fill="none" xmlns="http://www.w3.org/2000/svg">
<path d="M19.3711 2.5H4.53516L4.21875 0.953125C4.14844 0.566406 3.79688 0.25 3.41016 0.25H0.421875C0.175781 0.25 0 0.460938 0 0.671875V0.953125C0 1.19922 0.175781 1.375 0.421875 1.375H3.16406L5.625 14.4883C5.27344 14.9102 5.0625 15.4375 5.0625 16C5.0625 17.2656 6.04688 18.25 7.3125 18.25C8.54297 18.25 9.5625 17.2656 9.5625 16C9.5625 15.6836 9.42188 15.1914 9.24609 14.875H14.3438C14.168 15.1914 14.0625 15.6836 14.0625 16C14.0625 17.2656 15.0469 18.25 16.3125 18.25C17.543 18.25 18.5625 17.2656 18.5625 16C18.5625 15.4023 18.2812 14.8047 17.8594 14.418C17.7891 14.0312 17.4375 13.75 17.0508 13.75H6.64453L6.22266 11.5H17.8594C18.2812 11.5 18.5977 11.2539 18.7031 10.832L20.2148 3.51953C20.3203 2.99219 19.9336 2.5 19.3711 2.5ZM8.4375 16C8.4375 16.6328 7.91016 17.125 7.3125 17.125C6.67969 17.125 6.1875 16.6328 6.1875 16C6.1875 15.4023 6.67969 14.875 7.3125 14.875C7.91016 14.875 8.4375 15.4023 8.4375 16ZM16.3125 17.125C15.6797 17.125 15.1875 16.6328 15.1875 16C15.1875 15.4023 15.6797 14.875 16.3125 14.875C16.9102 14.875 17.4375 15.4023 17.4375 16C17.4375 16.6328 16.9102 17.125 16.3125 17.125ZM17.6484 10.375H6.01172L4.74609 3.625H19.0547L17.6484 10.375Z" fill="white"/>
</svg>
