<svg width="13" height="15" viewBox="0 0 13 15" fill="none" xmlns="http://www.w3.org/2000/svg">
<path d="M8.55859 8.625C7.76562 8.625 7.41016 9.0625 6.125 9.0625C4.8125 9.0625 4.45703 8.625 3.66406 8.625C1.64062 8.625 0 10.293 0 12.3164V13.4375C0 14.1758 0.574219 14.75 1.3125 14.75H10.9375C11.6484 14.75 12.25 14.1758 12.25 13.4375V12.3164C12.25 10.293 10.582 8.625 8.55859 8.625ZM11.375 13.4375C11.375 13.6836 11.1562 13.875 10.9375 13.875H1.3125C1.06641 13.875 0.875 13.6836 0.875 13.4375V12.3164C0.875 10.7578 2.10547 9.5 3.66406 9.5C4.21094 9.5 4.73047 9.9375 6.125 9.9375C7.49219 9.9375 8.03906 9.5 8.55859 9.5C10.1172 9.5 11.375 10.7578 11.375 12.3164V13.4375ZM6.125 7.75C8.03906 7.75 9.625 6.19141 9.625 4.25C9.625 2.33594 8.03906 0.75 6.125 0.75C4.18359 0.75 2.625 2.33594 2.625 4.25C2.625 6.19141 4.18359 7.75 6.125 7.75ZM6.125 1.625C7.54688 1.625 8.75 2.82812 8.75 4.25C8.75 5.69922 7.54688 6.875 6.125 6.875C4.67578 6.875 3.5 5.69922 3.5 4.25C3.5 2.82812 4.67578 1.625 6.125 1.625Z" fill="white"/>
</svg>
